Exact Audio Copy V0.99 prebeta 1 from 25. May 2007

EAC 抓取日志文件从20. 三月 2011, 12:33

群星 / 民族歌坛名人1

使用驱动器  ：PIONEER DVD-RW  DVR-115   Adapter: 0  ID: 0

读取模式     : 保护
使用精确流   : 是
废除音频缓冲 : 是
使用 C2 指针 : 否

读取偏移校正                   : 48
读取 Lead-In 和 Lead-Out       : 否
用静音填充抓取中丢失偏移的采样 : 是
去除首尾静音块                 : 否
已用接口                       : Win NT 及 2000 本地 Win32 接口

所用输出格式 : 内部 WAV 函数
样本格式     : 44.100 Hz;16 Bit;立体声
使用压缩偏移 : 48


被抓轨 CD 的 TOC

     音轨 |   开始   |   长度   | 起始扇区 | 结尾扇区 
    --------------------------------------------------
       1  |  0:00.00 |  2:16.47 |       0  |   10246  
       2  |  2:16.47 |  3:17.35 |   10247  |   25056  
       3  |  5:34.07 |  2:27.13 |   25057  |   36094  
       4  |  8:01.20 |  2:50.72 |   36095  |   48916  
       5  | 10:52.17 |  4:14.53 |   48917  |   68019  
       6  | 15:06.70 |  3:57.37 |   68020  |   85831  
       7  | 19:04.32 |  3:08.58 |   85832  |   99989  
       8  | 22:13.15 |  1:52.07 |   99990  |  108396  
       9  | 24:05.22 |  2:26.10 |  108397  |  119356  
      10  | 26:31.32 |  2:45.63 |  119357  |  131794  
      11  | 29:17.20 |  1:43.27 |  131795  |  139546  
      12  | 31:00.47 |  4:31.60 |  139547  |  159931  
      13  | 35:32.32 |  1:46.50 |  159932  |  167931  
      14  | 37:19.07 |  2:11.15 |  167932  |  177771  
      15  | 39:30.22 |  2:22.25 |  177772  |  188446  
      16  | 41:52.47 |  2:30.00 |  188447  |  199696  
      17  | 44:22.47 |  1:53.23 |  199697  |  208194  
      18  | 46:15.70 |  1:59.07 |  208195  |  217126  
      19  | 48:15.02 |  5:00.00 |  217127  |  239626  


范围状态及错误

已选择范围

     文件名 E:\20世纪中华歌坛名人百集珍藏版-民族歌坛名人1[lwg188原创]\群星 - 民族歌坛名人1.wav

     峰值电平 99.9 %
     范围质量 100.0 %
     复制 CRC 5B998F78
     复制成功

没有错误发生

状态报告结尾
